<?xml version="1.0" encoding="utf-8" standalone="no"?>
<!DOCTYPE svg PUBLIC "-//W3C//DTD SVG 1.1//EN"
  "http://www.w3.org/Graphics/SVG/1.1/DTD/svg11.dtd">
<!-- Created with matplotlib (https://matplotlib.org/) -->
<svg height="288pt" version="1.1" viewBox="0 0 432 288" width="432pt" xmlns="http://www.w3.org/2000/svg" xmlns:xlink="http://www.w3.org/1999/xlink">
 <metadata>
  <rdf:RDF xmlns:cc="http://creativecommons.org/ns#" xmlns:dc="http://purl.org/dc/elements/1.1/" xmlns:rdf="http://www.w3.org/1999/02/22-rdf-syntax-ns#">
   <cc:Work>
    <dc:type rdf:resource="http://purl.org/dc/dcmitype/StillImage"/>
    <dc:date>2021-07-13T10:42:02.184271</dc:date>
    <dc:format>image/svg+xml</dc:format>
    <dc:creator>
     <cc:Agent>
      <dc:title>Matplotlib v3.3.4, https://matplotlib.org/</dc:title>
     </cc:Agent>
    </dc:creator>
   </cc:Work>
  </rdf:RDF>
 </metadata>
 <defs>
  <style type="text/css">*{stroke-linecap:butt;stroke-linejoin:round;}</style>
 </defs>
 <g id="figure_1">
  <g id="patch_1">
   <path d="M 0 288 
L 432 288 
L 432 0 
L 0 0 
z
" style="fill:none;"/>
  </g>
  <g id="axes_1">
   <g id="patch_2">
    <path d="M 54 252 
L 388.8 252 
L 388.8 34.56 
L 54 34.56 
z
" style="fill:#ffffff;"/>
   </g>
   <g id="patch_3">
    <path clip-path="url(#p3c88f008df)" d="M 69.218182 252 
L 71.559441 252 
L 71.559441 251.227292 
L 69.218182 251.227292 
z
" style="fill:#778899;"/>
   </g>
   <g id="patch_4">
    <path clip-path="url(#p3c88f008df)" d="M 71.559441 252 
L 73.900699 252 
L 73.900699 252 
L 71.559441 252 
z
" style="fill:#778899;"/>
   </g>
   <g id="patch_5">
    <path clip-path="url(#p3c88f008df)" d="M 73.900699 252 
L 76.241958 252 
L 76.241958 252 
L 73.900699 252 
z
" style="fill:#778899;"/>
   </g>
   <g id="patch_6">
    <path clip-path="url(#p3c88f008df)" d="M 76.241958 252 
L 78.583217 252 
L 78.583217 252 
L 76.241958 252 
z
" style="fill:#778899;"/>
   </g>
   <g id="patch_7">
    <path clip-path="url(#p3c88f008df)" d="M 78.583217 252 
L 80.924476 252 
L 80.924476 252 
L 78.583217 252 
z
" style="fill:#778899;"/>
   </g>
   <g id="patch_8">
    <path clip-path="url(#p3c88f008df)" d="M 80.924476 252 
L 83.265734 252 
L 83.265734 252 
L 80.924476 252 
z
" style="fill:#778899;"/>
   </g>
   <g id="patch_9">
    <path clip-path="url(#p3c88f008df)" d="M 83.265734 252 
L 85.606993 252 
L 85.606993 252 
L 83.265734 252 
z
" style="fill:#778899;"/>
   </g>
   <g id="patch_10">
    <path clip-path="url(#p3c88f008df)" d="M 85.606993 252 
L 87.948252 252 
L 87.948252 252 
L 85.606993 252 
z
" style="fill:#778899;"/>
   </g>
   <g id="patch_11">
    <path clip-path="url(#p3c88f008df)" d="M 87.948252 252 
L 90.28951 252 
L 90.28951 252 
L 87.948252 252 
z
" style="fill:#778899;"/>
   </g>
   <g id="patch_12">
    <path clip-path="url(#p3c88f008df)" d="M 90.28951 252 
L 92.630769 252 
L 92.630769 252 
L 90.28951 252 
z
" style="fill:#778899;"/>
   </g>
   <g id="patch_13">
    <path clip-path="url(#p3c88f008df)" d="M 92.630769 252 
L 94.972028 252 
L 94.972028 252 
L 92.630769 252 
z
" style="fill:#778899;"/>
   </g>
   <g id="patch_14">
    <path clip-path="url(#p3c88f008df)" d="M 94.972028 252 
L 97.313287 252 
L 97.313287 252 
L 94.972028 252 
z
" style="fill:#778899;"/>
   </g>
   <g id="patch_15">
    <path clip-path="url(#p3c88f008df)" d="M 97.313287 252 
L 99.654545 252 
L 99.654545 252 
L 97.313287 252 
z
" style="fill:#778899;"/>
   </g>
   <g id="patch_16">
    <path clip-path="url(#p3c88f008df)" d="M 99.654545 252 
L 101.995804 252 
L 101.995804 252 
L 99.654545 252 
z
" style="fill:#778899;"/>
   </g>
   <g id="patch_17">
    <path clip-path="url(#p3c88f008df)" d="M 101.995804 252 
L 104.337063 252 
L 104.337063 252 
L 101.995804 252 
z
" style="fill:#778899;"/>
   </g>
   <g id="patch_18">
    <path clip-path="url(#p3c88f008df)" d="M 104.337063 252 
L 106.678322 252 
L 106.678322 252 
L 104.337063 252 
z
" style="fill:#778899;"/>
   </g>
   <g id="patch_19">
    <path clip-path="url(#p3c88f008df)" d="M 106.678322 252 
L 109.01958 252 
L 109.01958 252 
L 106.678322 252 
z
" style="fill:#778899;"/>
   </g>
   <g id="patch_20">
    <path clip-path="url(#p3c88f008df)" d="M 109.01958 252 
L 111.360839 252 
L 111.360839 252 
L 109.01958 252 
z
" style="fill:#778899;"/>
   </g>
   <g id="patch_21">
    <path clip-path="url(#p3c88f008df)" d="M 111.360839 252 
L 113.702098 252 
L 113.702098 252 
L 111.360839 252 
z
" style="fill:#778899;"/>
   </g>
   <g id="patch_22">
    <path clip-path="url(#p3c88f008df)" d="M 113.702098 252 
L 116.043357 252 
L 116.043357 251.227292 
L 113.702098 251.227292 
z
" style="fill:#778899;"/>
   </g>
   <g id="patch_23">
    <path clip-path="url(#p3c88f008df)" d="M 116.043357 252 
L 118.384615 252 
L 118.384615 252 
L 116.043357 252 
z
" style="fill:#778899;"/>
   </g>
   <g id="patch_24">
    <path clip-path="url(#p3c88f008df)" d="M 118.384615 252 
L 120.725874 252 
L 120.725874 252 
L 118.384615 252 
z
" style="fill:#778899;"/>
   </g>
   <g id="patch_25">
    <path clip-path="url(#p3c88f008df)" d="M 120.725874 252 
L 123.067133 252 
L 123.067133 252 
L 120.725874 252 
z
" style="fill:#778899;"/>
   </g>
   <g id="patch_26">
    <path clip-path="url(#p3c88f008df)" d="M 123.067133 252 
L 125.408392 252 
L 125.408392 252 
L 123.067133 252 
z
" style="fill:#778899;"/>
   </g>
   <g id="patch_27">
    <path clip-path="url(#p3c88f008df)" d="M 125.408392 252 
L 127.74965 252 
L 127.74965 252 
L 125.408392 252 
z
" style="fill:#778899;"/>
   </g>
   <g id="patch_28">
    <path clip-path="url(#p3c88f008df)" d="M 127.74965 252 
L 130.090909 252 
L 130.090909 252 
L 127.74965 252 
z
" style="fill:#778899;"/>
   </g>
   <g id="patch_29">
    <path clip-path="url(#p3c88f008df)" d="M 130.090909 252 
L 132.432168 252 
L 132.432168 252 
L 130.090909 252 
z
" style="fill:#778899;"/>
   </g>
   <g id="patch_30">
    <path clip-path="url(#p3c88f008df)" d="M 132.432168 252 
L 134.773427 252 
L 134.773427 252 
L 132.432168 252 
z
" style="fill:#778899;"/>
   </g>
   <g id="patch_31">
    <path clip-path="url(#p3c88f008df)" d="M 134.773427 252 
L 137.114685 252 
L 137.114685 251.227292 
L 134.773427 251.227292 
z
" style="fill:#778899;"/>
   </g>
   <g id="patch_32">
    <path clip-path="url(#p3c88f008df)" d="M 137.114685 252 
L 139.455944 252 
L 139.455944 252 
L 137.114685 252 
z
" style="fill:#778899;"/>
   </g>
   <g id="patch_33">
    <path clip-path="url(#p3c88f008df)" d="M 139.455944 252 
L 141.797203 252 
L 141.797203 252 
L 139.455944 252 
z
" style="fill:#778899;"/>
   </g>
   <g id="patch_34">
    <path clip-path="url(#p3c88f008df)" d="M 141.797203 252 
L 144.138462 252 
L 144.138462 252 
L 141.797203 252 
z
" style="fill:#778899;"/>
   </g>
   <g id="patch_35">
    <path clip-path="url(#p3c88f008df)" d="M 144.138462 252 
L 146.47972 252 
L 146.47972 252 
L 144.138462 252 
z
" style="fill:#778899;"/>
   </g>
   <g id="patch_36">
    <path clip-path="url(#p3c88f008df)" d="M 146.47972 252 
L 148.820979 252 
L 148.820979 252 
L 146.47972 252 
z
" style="fill:#778899;"/>
   </g>
   <g id="patch_37">
    <path clip-path="url(#p3c88f008df)" d="M 148.820979 252 
L 151.162238 252 
L 151.162238 252 
L 148.820979 252 
z
" style="fill:#778899;"/>
   </g>
   <g id="patch_38">
    <path clip-path="url(#p3c88f008df)" d="M 151.162238 252 
L 153.503497 252 
L 153.503497 252 
L 151.162238 252 
z
" style="fill:#778899;"/>
   </g>
   <g id="patch_39">
    <path clip-path="url(#p3c88f008df)" d="M 153.503497 252 
L 155.844755 252 
L 155.844755 252 
L 153.503497 252 
z
" style="fill:#778899;"/>
   </g>
   <g id="patch_40">
    <path clip-path="url(#p3c88f008df)" d="M 155.844755 252 
L 158.186014 252 
L 158.186014 252 
L 155.844755 252 
z
" style="fill:#778899;"/>
   </g>
   <g id="patch_41">
    <path clip-path="url(#p3c88f008df)" d="M 158.186014 252 
L 160.527273 252 
L 160.527273 252 
L 158.186014 252 
z
" style="fill:#778899;"/>
   </g>
   <g id="patch_42">
    <path clip-path="url(#p3c88f008df)" d="M 160.527273 252 
L 162.868531 252 
L 162.868531 252 
L 160.527273 252 
z
" style="fill:#778899;"/>
   </g>
   <g id="patch_43">
    <path clip-path="url(#p3c88f008df)" d="M 162.868531 252 
L 165.20979 252 
L 165.20979 252 
L 162.868531 252 
z
" style="fill:#778899;"/>
   </g>
   <g id="patch_44">
    <path clip-path="url(#p3c88f008df)" d="M 165.20979 252 
L 167.551049 252 
L 167.551049 252 
L 165.20979 252 
z
" style="fill:#778899;"/>
   </g>
   <g id="patch_45">
    <path clip-path="url(#p3c88f008df)" d="M 167.551049 252 
L 169.892308 252 
L 169.892308 252 
L 167.551049 252 
z
" style="fill:#778899;"/>
   </g>
   <g id="patch_46">
    <path clip-path="url(#p3c88f008df)" d="M 169.892308 252 
L 172.233566 252 
L 172.233566 252 
L 169.892308 252 
z
" style="fill:#778899;"/>
   </g>
   <g id="patch_47">
    <path clip-path="url(#p3c88f008df)" d="M 172.233566 252 
L 174.574825 252 
L 174.574825 252 
L 172.233566 252 
z
" style="fill:#778899;"/>
   </g>
   <g id="patch_48">
    <path clip-path="url(#p3c88f008df)" d="M 174.574825 252 
L 176.916084 252 
L 176.916084 252 
L 174.574825 252 
z
" style="fill:#778899;"/>
   </g>
   <g id="patch_49">
    <path clip-path="url(#p3c88f008df)" d="M 176.916084 252 
L 179.257343 252 
L 179.257343 252 
L 176.916084 252 
z
" style="fill:#778899;"/>
   </g>
   <g id="patch_50">
    <path clip-path="url(#p3c88f008df)" d="M 179.257343 252 
L 181.598601 252 
L 181.598601 252 
L 179.257343 252 
z
" style="fill:#778899;"/>
   </g>
   <g id="patch_51">
    <path clip-path="url(#p3c88f008df)" d="M 181.598601 252 
L 183.93986 252 
L 183.93986 252 
L 181.598601 252 
z
" style="fill:#778899;"/>
   </g>
   <g id="patch_52">
    <path clip-path="url(#p3c88f008df)" d="M 183.93986 252 
L 186.281119 252 
L 186.281119 252 
L 183.93986 252 
z
" style="fill:#778899;"/>
   </g>
   <g id="patch_53">
    <path clip-path="url(#p3c88f008df)" d="M 186.281119 252 
L 188.622378 252 
L 188.622378 252 
L 186.281119 252 
z
" style="fill:#778899;"/>
   </g>
   <g id="patch_54">
    <path clip-path="url(#p3c88f008df)" d="M 188.622378 252 
L 190.963636 252 
L 190.963636 252 
L 188.622378 252 
z
" style="fill:#778899;"/>
   </g>
   <g id="patch_55">
    <path clip-path="url(#p3c88f008df)" d="M 190.963636 252 
L 193.304895 252 
L 193.304895 252 
L 190.963636 252 
z
" style="fill:#778899;"/>
   </g>
   <g id="patch_56">
    <path clip-path="url(#p3c88f008df)" d="M 193.304895 252 
L 195.646154 252 
L 195.646154 252 
L 193.304895 252 
z
" style="fill:#778899;"/>
   </g>
   <g id="patch_57">
    <path clip-path="url(#p3c88f008df)" d="M 195.646154 252 
L 197.987413 252 
L 197.987413 252 
L 195.646154 252 
z
" style="fill:#778899;"/>
   </g>
   <g id="patch_58">
    <path clip-path="url(#p3c88f008df)" d="M 197.987413 252 
L 200.328671 252 
L 200.328671 252 
L 197.987413 252 
z
" style="fill:#778899;"/>
   </g>
   <g id="patch_59">
    <path clip-path="url(#p3c88f008df)" d="M 200.328671 252 
L 202.66993 252 
L 202.66993 252 
L 200.328671 252 
z
" style="fill:#778899;"/>
   </g>
   <g id="patch_60">
    <path clip-path="url(#p3c88f008df)" d="M 202.66993 252 
L 205.011189 252 
L 205.011189 252 
L 202.66993 252 
z
" style="fill:#778899;"/>
   </g>
   <g id="patch_61">
    <path clip-path="url(#p3c88f008df)" d="M 205.011189 252 
L 207.352448 252 
L 207.352448 252 
L 205.011189 252 
z
" style="fill:#778899;"/>
   </g>
   <g id="patch_62">
    <path clip-path="url(#p3c88f008df)" d="M 207.352448 252 
L 209.693706 252 
L 209.693706 252 
L 207.352448 252 
z
" style="fill:#778899;"/>
   </g>
   <g id="patch_63">
    <path clip-path="url(#p3c88f008df)" d="M 209.693706 252 
L 212.034965 252 
L 212.034965 252 
L 209.693706 252 
z
" style="fill:#778899;"/>
   </g>
   <g id="patch_64">
    <path clip-path="url(#p3c88f008df)" d="M 212.034965 252 
L 214.376224 252 
L 214.376224 252 
L 212.034965 252 
z
" style="fill:#778899;"/>
   </g>
   <g id="patch_65">
    <path clip-path="url(#p3c88f008df)" d="M 214.376224 252 
L 216.717483 252 
L 216.717483 252 
L 214.376224 252 
z
" style="fill:#778899;"/>
   </g>
   <g id="patch_66">
    <path clip-path="url(#p3c88f008df)" d="M 216.717483 252 
L 219.058741 252 
L 219.058741 252 
L 216.717483 252 
z
" style="fill:#778899;"/>
   </g>
   <g id="patch_67">
    <path clip-path="url(#p3c88f008df)" d="M 219.058741 252 
L 221.4 252 
L 221.4 252 
L 219.058741 252 
z
" style="fill:#778899;"/>
   </g>
   <g id="patch_68">
    <path clip-path="url(#p3c88f008df)" d="M 221.4 252 
L 223.741259 252 
L 223.741259 252 
L 221.4 252 
z
" style="fill:#778899;"/>
   </g>
   <g id="patch_69">
    <path clip-path="url(#p3c88f008df)" d="M 223.741259 252 
L 226.082517 252 
L 226.082517 252 
L 223.741259 252 
z
" style="fill:#778899;"/>
   </g>
   <g id="patch_70">
    <path clip-path="url(#p3c88f008df)" d="M 226.082517 252 
L 228.423776 252 
L 228.423776 252 
L 226.082517 252 
z
" style="fill:#778899;"/>
   </g>
   <g id="patch_71">
    <path clip-path="url(#p3c88f008df)" d="M 228.423776 252 
L 230.765035 252 
L 230.765035 252 
L 228.423776 252 
z
" style="fill:#778899;"/>
   </g>
   <g id="patch_72">
    <path clip-path="url(#p3c88f008df)" d="M 230.765035 252 
L 233.106294 252 
L 233.106294 252 
L 230.765035 252 
z
" style="fill:#778899;"/>
   </g>
   <g id="patch_73">
    <path clip-path="url(#p3c88f008df)" d="M 233.106294 252 
L 235.447552 252 
L 235.447552 252 
L 233.106294 252 
z
" style="fill:#778899;"/>
   </g>
   <g id="patch_74">
    <path clip-path="url(#p3c88f008df)" d="M 235.447552 252 
L 237.788811 252 
L 237.788811 252 
L 235.447552 252 
z
" style="fill:#778899;"/>
   </g>
   <g id="patch_75">
    <path clip-path="url(#p3c88f008df)" d="M 237.788811 252 
L 240.13007 252 
L 240.13007 252 
L 237.788811 252 
z
" style="fill:#778899;"/>
   </g>
   <g id="patch_76">
    <path clip-path="url(#p3c88f008df)" d="M 240.13007 252 
L 242.471329 252 
L 242.471329 252 
L 240.13007 252 
z
" style="fill:#778899;"/>
   </g>
   <g id="patch_77">
    <path clip-path="url(#p3c88f008df)" d="M 242.471329 252 
L 244.812587 252 
L 244.812587 252 
L 242.471329 252 
z
" style="fill:#778899;"/>
   </g>
   <g id="patch_78">
    <path clip-path="url(#p3c88f008df)" d="M 244.812587 252 
L 247.153846 252 
L 247.153846 251.227292 
L 244.812587 251.227292 
z
" style="fill:#778899;"/>
   </g>
   <g id="patch_79">
    <path clip-path="url(#p3c88f008df)" d="M 247.153846 252 
L 249.495105 252 
L 249.495105 252 
L 247.153846 252 
z
" style="fill:#778899;"/>
   </g>
   <g id="patch_80">
    <path clip-path="url(#p3c88f008df)" d="M 249.495105 252 
L 251.836364 252 
L 251.836364 252 
L 249.495105 252 
z
" style="fill:#778899;"/>
   </g>
   <g id="patch_81">
    <path clip-path="url(#p3c88f008df)" d="M 251.836364 252 
L 254.177622 252 
L 254.177622 252 
L 251.836364 252 
z
" style="fill:#778899;"/>
   </g>
   <g id="patch_82">
    <path clip-path="url(#p3c88f008df)" d="M 254.177622 252 
L 256.518881 252 
L 256.518881 251.227292 
L 254.177622 251.227292 
z
" style="fill:#778899;"/>
   </g>
   <g id="patch_83">
    <path clip-path="url(#p3c88f008df)" d="M 256.518881 252 
L 258.86014 252 
L 258.86014 252 
L 256.518881 252 
z
" style="fill:#778899;"/>
   </g>
   <g id="patch_84">
    <path clip-path="url(#p3c88f008df)" d="M 258.86014 252 
L 261.201399 252 
L 261.201399 251.227292 
L 258.86014 251.227292 
z
" style="fill:#778899;"/>
   </g>
   <g id="patch_85">
    <path clip-path="url(#p3c88f008df)" d="M 261.201399 252 
L 263.542657 252 
L 263.542657 251.227292 
L 261.201399 251.227292 
z
" style="fill:#778899;"/>
   </g>
   <g id="patch_86">
    <path clip-path="url(#p3c88f008df)" d="M 263.542657 252 
L 265.883916 252 
L 265.883916 252 
L 263.542657 252 
z
" style="fill:#778899;"/>
   </g>
   <g id="patch_87">
    <path clip-path="url(#p3c88f008df)" d="M 265.883916 252 
L 268.225175 252 
L 268.225175 252 
L 265.883916 252 
z
" style="fill:#778899;"/>
   </g>
   <g id="patch_88">
    <path clip-path="url(#p3c88f008df)" d="M 268.225175 252 
L 270.566434 252 
L 270.566434 251.227292 
L 268.225175 251.227292 
z
" style="fill:#778899;"/>
   </g>
   <g id="patch_89">
    <path clip-path="url(#p3c88f008df)" d="M 270.566434 252 
L 272.907692 252 
L 272.907692 252 
L 270.566434 252 
z
" style="fill:#778899;"/>
   </g>
   <g id="patch_90">
    <path clip-path="url(#p3c88f008df)" d="M 272.907692 252 
L 275.248951 252 
L 275.248951 245.045629 
L 272.907692 245.045629 
z
" style="fill:#778899;"/>
   </g>
   <g id="patch_91">
    <path clip-path="url(#p3c88f008df)" d="M 275.248951 252 
L 277.59021 252 
L 277.59021 246.591045 
L 275.248951 246.591045 
z
" style="fill:#778899;"/>
   </g>
   <g id="patch_92">
    <path clip-path="url(#p3c88f008df)" d="M 277.59021 252 
L 279.931469 252 
L 279.931469 247.363753 
L 277.59021 247.363753 
z
" style="fill:#778899;"/>
   </g>
   <g id="patch_93">
    <path clip-path="url(#p3c88f008df)" d="M 279.931469 252 
L 282.272727 252 
L 282.272727 243.500213 
L 279.931469 243.500213 
z
" style="fill:#778899;"/>
   </g>
   <g id="patch_94">
    <path clip-path="url(#p3c88f008df)" d="M 282.272727 252 
L 284.613986 252 
L 284.613986 238.863966 
L 282.272727 238.863966 
z
" style="fill:#778899;"/>
   </g>
   <g id="patch_95">
    <path clip-path="url(#p3c88f008df)" d="M 284.613986 252 
L 286.955245 252 
L 286.955245 240.409382 
L 284.613986 240.409382 
z
" style="fill:#778899;"/>
   </g>
   <g id="patch_96">
    <path clip-path="url(#p3c88f008df)" d="M 286.955245 252 
L 289.296503 252 
L 289.296503 235.000426 
L 286.955245 235.000426 
z
" style="fill:#778899;"/>
   </g>
   <g id="patch_97">
    <path clip-path="url(#p3c88f008df)" d="M 289.296503 252 
L 291.637762 252 
L 291.637762 228.046055 
L 289.296503 228.046055 
z
" style="fill:#778899;"/>
   </g>
   <g id="patch_98">
    <path clip-path="url(#p3c88f008df)" d="M 291.637762 252 
L 293.979021 252 
L 293.979021 234.227719 
L 291.637762 234.227719 
z
" style="fill:#778899;"/>
   </g>
   <g id="patch_99">
    <path clip-path="url(#p3c88f008df)" d="M 293.979021 252 
L 296.32028 252 
L 296.32028 224.182516 
L 293.979021 224.182516 
z
" style="fill:#778899;"/>
   </g>
   <g id="patch_100">
    <path clip-path="url(#p3c88f008df)" d="M 296.32028 252 
L 298.661538 252 
L 298.661538 224.955224 
L 296.32028 224.955224 
z
" style="fill:#778899;"/>
   </g>
   <g id="patch_101">
    <path clip-path="url(#p3c88f008df)" d="M 298.661538 252 
L 301.002797 252 
L 301.002797 200.228571 
L 298.661538 200.228571 
z
" style="fill:#778899;"/>
   </g>
   <g id="patch_102">
    <path clip-path="url(#p3c88f008df)" d="M 301.002797 252 
L 303.344056 252 
L 303.344056 190.183369 
L 301.002797 190.183369 
z
" style="fill:#778899;"/>
   </g>
   <g id="patch_103">
    <path clip-path="url(#p3c88f008df)" d="M 303.344056 252 
L 305.685315 252 
L 305.685315 177.820043 
L 303.344056 177.820043 
z
" style="fill:#778899;"/>
   </g>
   <g id="patch_104">
    <path clip-path="url(#p3c88f008df)" d="M 305.685315 252 
L 308.026573 252 
L 308.026573 135.321109 
L 305.685315 135.321109 
z
" style="fill:#778899;"/>
   </g>
   <g id="patch_105">
    <path clip-path="url(#p3c88f008df)" d="M 308.026573 252 
L 310.367832 252 
L 310.367832 103.640085 
L 308.026573 103.640085 
z
" style="fill:#778899;"/>
   </g>
   <g id="patch_106">
    <path clip-path="url(#p3c88f008df)" d="M 310.367832 252 
L 312.709091 252 
L 312.709091 104.412793 
L 310.367832 104.412793 
z
" style="fill:#778899;"/>
   </g>
   <g id="patch_107">
    <path clip-path="url(#p3c88f008df)" d="M 312.709091 252 
L 315.05035 252 
L 315.05035 44.914286 
L 312.709091 44.914286 
z
" style="fill:#778899;"/>
   </g>
   <g id="patch_108">
    <path clip-path="url(#p3c88f008df)" d="M 315.05035 252 
L 317.391608 252 
L 317.391608 58.05032 
L 315.05035 58.05032 
z
" style="fill:#778899;"/>
   </g>
   <g id="patch_109">
    <path clip-path="url(#p3c88f008df)" d="M 317.391608 252 
L 319.732867 252 
L 319.732867 80.458849 
L 317.391608 80.458849 
z
" style="fill:#778899;"/>
   </g>
   <g id="patch_110">
    <path clip-path="url(#p3c88f008df)" d="M 319.732867 252 
L 322.074126 252 
L 322.074126 85.867804 
L 319.732867 85.867804 
z
" style="fill:#778899;"/>
   </g>
   <g id="patch_111">
    <path clip-path="url(#p3c88f008df)" d="M 322.074126 252 
L 324.415385 252 
L 324.415385 88.185928 
L 322.074126 88.185928 
z
" style="fill:#778899;"/>
   </g>
   <g id="patch_112">
    <path clip-path="url(#p3c88f008df)" d="M 324.415385 252 
L 326.756643 252 
L 326.756643 161.593177 
L 324.415385 161.593177 
z
" style="fill:#778899;"/>
   </g>
   <g id="patch_113">
    <path clip-path="url(#p3c88f008df)" d="M 326.756643 252 
L 329.097902 252 
L 329.097902 207.182942 
L 326.756643 207.182942 
z
" style="fill:#778899;"/>
   </g>
   <g id="patch_114">
    <path clip-path="url(#p3c88f008df)" d="M 329.097902 252 
L 331.439161 252 
L 331.439161 239.636674 
L 329.097902 239.636674 
z
" style="fill:#778899;"/>
   </g>
   <g id="patch_115">
    <path clip-path="url(#p3c88f008df)" d="M 331.439161 252 
L 333.78042 252 
L 333.78042 249.681876 
L 331.439161 249.681876 
z
" style="fill:#778899;"/>
   </g>
   <g id="patch_116">
    <path clip-path="url(#p3c88f008df)" d="M 333.78042 252 
L 336.121678 252 
L 336.121678 252 
L 333.78042 252 
z
" style="fill:#778899;"/>
   </g>
   <g id="patch_117">
    <path clip-path="url(#p3c88f008df)" d="M 336.121678 252 
L 338.462937 252 
L 338.462937 252 
L 336.121678 252 
z
" style="fill:#778899;"/>
   </g>
   <g id="patch_118">
    <path clip-path="url(#p3c88f008df)" d="M 338.462937 252 
L 340.804196 252 
L 340.804196 252 
L 338.462937 252 
z
" style="fill:#778899;"/>
   </g>
   <g id="patch_119">
    <path clip-path="url(#p3c88f008df)" d="M 340.804196 252 
L 343.145455 252 
L 343.145455 252 
L 340.804196 252 
z
" style="fill:#778899;"/>
   </g>
   <g id="patch_120">
    <path clip-path="url(#p3c88f008df)" d="M 343.145455 252 
L 345.486713 252 
L 345.486713 252 
L 343.145455 252 
z
" style="fill:#778899;"/>
   </g>
   <g id="patch_121">
    <path clip-path="url(#p3c88f008df)" d="M 345.486713 252 
L 347.827972 252 
L 347.827972 252 
L 345.486713 252 
z
" style="fill:#778899;"/>
   </g>
   <g id="patch_122">
    <path clip-path="url(#p3c88f008df)" d="M 347.827972 252 
L 350.169231 252 
L 350.169231 252 
L 347.827972 252 
z
" style="fill:#778899;"/>
   </g>
   <g id="patch_123">
    <path clip-path="url(#p3c88f008df)" d="M 350.169231 252 
L 352.51049 252 
L 352.51049 252 
L 350.169231 252 
z
" style="fill:#778899;"/>
   </g>
   <g id="patch_124">
    <path clip-path="url(#p3c88f008df)" d="M 352.51049 252 
L 354.851748 252 
L 354.851748 252 
L 352.51049 252 
z
" style="fill:#778899;"/>
   </g>
   <g id="patch_125">
    <path clip-path="url(#p3c88f008df)" d="M 354.851748 252 
L 357.193007 252 
L 357.193007 252 
L 354.851748 252 
z
" style="fill:#778899;"/>
   </g>
   <g id="patch_126">
    <path clip-path="url(#p3c88f008df)" d="M 357.193007 252 
L 359.534266 252 
L 359.534266 252 
L 357.193007 252 
z
" style="fill:#778899;"/>
   </g>
   <g id="patch_127">
    <path clip-path="url(#p3c88f008df)" d="M 359.534266 252 
L 361.875524 252 
L 361.875524 251.227292 
L 359.534266 251.227292 
z
" style="fill:#778899;"/>
   </g>
   <g id="patch_128">
    <path clip-path="url(#p3c88f008df)" d="M 361.875524 252 
L 364.216783 252 
L 364.216783 252 
L 361.875524 252 
z
" style="fill:#778899;"/>
   </g>
   <g id="patch_129">
    <path clip-path="url(#p3c88f008df)" d="M 364.216783 252 
L 366.558042 252 
L 366.558042 251.227292 
L 364.216783 251.227292 
z
" style="fill:#778899;"/>
   </g>
   <g id="patch_130">
    <path clip-path="url(#p3c88f008df)" d="M 366.558042 252 
L 368.899301 252 
L 368.899301 252 
L 366.558042 252 
z
" style="fill:#778899;"/>
   </g>
   <g id="patch_131">
    <path clip-path="url(#p3c88f008df)" d="M 368.899301 252 
L 371.240559 252 
L 371.240559 252 
L 368.899301 252 
z
" style="fill:#778899;"/>
   </g>
   <g id="patch_132">
    <path clip-path="url(#p3c88f008df)" d="M 371.240559 252 
L 373.581818 252 
L 373.581818 251.227292 
L 371.240559 251.227292 
z
" style="fill:#778899;"/>
   </g>
   <g id="matplotlib.axis_1">
    <g id="xtick_1">
     <g id="line2d_1">
      <defs>
       <path d="M 0 0 
L 0 3.5 
" id="m75686b95cf" style="stroke:#000000;stroke-width:0.8;"/>
      </defs>
      <g>
       <use style="stroke:#000000;stroke-width:0.8;" x="75.191224" xlink:href="#m75686b95cf" y="252"/>
      </g>
     </g>
     <g id="text_1">
      <!-- 0.2 -->
      <g transform="translate(67.239661 266.598437)scale(0.1 -0.1)">
       <defs>
        <path d="M 31.78125 3.421875 
Q 39.265625 3.421875 42.96875 11.625 
Q 46.6875 19.828125 46.6875 36.375 
Q 46.6875 52.984375 42.96875 61.1875 
Q 39.265625 69.390625 31.78125 69.390625 
Q 24.3125 69.390625 20.59375 61.1875 
Q 16.890625 52.984375 16.890625 36.375 
Q 16.890625 19.828125 20.59375 11.625 
Q 24.3125 3.421875 31.78125 3.421875 
z
M 31.78125 -1.421875 
Q 19.921875 -1.421875 13.25 8.53125 
Q 6.59375 18.5 6.59375 36.375 
Q 6.59375 54.296875 13.25 64.25 
Q 19.921875 74.21875 31.78125 74.21875 
Q 43.703125 74.21875 50.34375 64.25 
Q 56.984375 54.296875 56.984375 36.375 
Q 56.984375 18.5 50.34375 8.53125 
Q 43.703125 -1.421875 31.78125 -1.421875 
z
" id="DejaVuSerif-48"/>
        <path d="M 9.421875 5.078125 
Q 9.421875 7.8125 11.28125 9.71875 
Q 13.140625 11.625 15.921875 11.625 
Q 18.609375 11.625 20.5 9.71875 
Q 22.40625 7.8125 22.40625 5.078125 
Q 22.40625 2.390625 20.5 0.484375 
Q 18.609375 -1.421875 15.921875 -1.421875 
Q 13.140625 -1.421875 11.28125 0.453125 
Q 9.421875 2.34375 9.421875 5.078125 
z
" id="DejaVuSerif-46"/>
        <path d="M 12.796875 55.515625 
L 7.328125 55.515625 
L 7.328125 68.5 
Q 12.546875 71.296875 17.84375 72.75 
Q 23.140625 74.21875 28.21875 74.21875 
Q 39.59375 74.21875 46.1875 68.703125 
Q 52.78125 63.1875 52.78125 53.71875 
Q 52.78125 43.015625 37.84375 28.125 
Q 36.671875 27 36.078125 26.421875 
L 17.671875 8.015625 
L 48.09375 8.015625 
L 48.09375 17 
L 53.8125 17 
L 53.8125 0 
L 6.78125 0 
L 6.78125 5.328125 
L 28.90625 27.390625 
Q 36.234375 34.71875 39.359375 40.84375 
Q 42.484375 46.96875 42.484375 53.71875 
Q 42.484375 61.078125 38.640625 65.234375 
Q 34.8125 69.390625 28.078125 69.390625 
Q 21.09375 69.390625 17.28125 65.921875 
Q 13.484375 62.453125 12.796875 55.515625 
z
" id="DejaVuSerif-50"/>
       </defs>
       <use xlink:href="#DejaVuSerif-48"/>
       <use x="63.623047" xlink:href="#DejaVuSerif-46"/>
       <use x="95.410156" xlink:href="#DejaVuSerif-50"/>
      </g>
     </g>
    </g>
    <g id="xtick_2">
     <g id="line2d_2">
      <g>
       <use style="stroke:#000000;stroke-width:0.8;" x="115.509255" xlink:href="#m75686b95cf" y="252"/>
      </g>
     </g>
     <g id="text_2">
      <!-- 0.3 -->
      <g transform="translate(107.557693 266.598437)scale(0.1 -0.1)">
       <defs>
        <path d="M 9.71875 69.828125 
Q 15.4375 71.96875 20.671875 73.09375 
Q 25.921875 74.21875 30.515625 74.21875 
Q 41.21875 74.21875 47.21875 69.59375 
Q 53.21875 64.984375 53.21875 56.78125 
Q 53.21875 50.203125 49.0625 45.78125 
Q 44.921875 41.359375 37.3125 39.796875 
Q 46.296875 38.53125 51.25 33.28125 
Q 56.203125 28.03125 56.203125 19.671875 
Q 56.203125 9.46875 49.34375 4.015625 
Q 42.484375 -1.421875 29.59375 -1.421875 
Q 23.875 -1.421875 18.421875 -0.1875 
Q 12.984375 1.03125 7.625 3.515625 
L 7.625 17.671875 
L 13.09375 17.671875 
Q 13.578125 10.640625 17.828125 7.03125 
Q 22.078125 3.421875 29.78125 3.421875 
Q 37.25 3.421875 41.578125 7.734375 
Q 45.90625 12.0625 45.90625 19.578125 
Q 45.90625 28.171875 41.453125 32.59375 
Q 37.015625 37.015625 28.421875 37.015625 
L 23.78125 37.015625 
L 23.78125 42 
L 26.21875 42 
Q 34.765625 42 39.03125 45.53125 
Q 43.3125 49.078125 43.3125 56.203125 
Q 43.3125 62.59375 39.796875 65.984375 
Q 36.28125 69.390625 29.6875 69.390625 
Q 23.09375 69.390625 19.453125 66.265625 
Q 15.828125 63.140625 15.1875 56.984375 
L 9.71875 56.984375 
z
" id="DejaVuSerif-51"/>
       </defs>
       <use xlink:href="#DejaVuSerif-48"/>
       <use x="63.623047" xlink:href="#DejaVuSerif-46"/>
       <use x="95.410156" xlink:href="#DejaVuSerif-51"/>
      </g>
     </g>
    </g>
    <g id="xtick_3">
     <g id="line2d_3">
      <g>
       <use style="stroke:#000000;stroke-width:0.8;" x="155.827287" xlink:href="#m75686b95cf" y="252"/>
      </g>
     </g>
     <g id="text_3">
      <!-- 0.4 -->
      <g transform="translate(147.875725 266.598437)scale(0.1 -0.1)">
       <defs>
        <path d="M 34.90625 24.703125 
L 34.90625 63.484375 
L 10.015625 24.703125 
z
M 56.390625 0 
L 23.1875 0 
L 23.1875 5.171875 
L 34.90625 5.171875 
L 34.90625 19.484375 
L 3.078125 19.484375 
L 3.078125 24.8125 
L 35.015625 74.21875 
L 44.671875 74.21875 
L 44.671875 24.703125 
L 58.59375 24.703125 
L 58.59375 19.484375 
L 44.671875 19.484375 
L 44.671875 5.171875 
L 56.390625 5.171875 
z
" id="DejaVuSerif-52"/>
       </defs>
       <use xlink:href="#DejaVuSerif-48"/>
       <use x="63.623047" xlink:href="#DejaVuSerif-46"/>
       <use x="95.410156" xlink:href="#DejaVuSerif-52"/>
      </g>
     </g>
    </g>
    <g id="xtick_4">
     <g id="line2d_4">
      <g>
       <use style="stroke:#000000;stroke-width:0.8;" x="196.145319" xlink:href="#m75686b95cf" y="252"/>
      </g>
     </g>
     <g id="text_4">
      <!-- 0.5 -->
      <g transform="translate(188.193756 266.598437)scale(0.1 -0.1)">
       <defs>
        <path d="M 50.296875 72.90625 
L 50.296875 64.890625 
L 16.890625 64.890625 
L 16.890625 44 
Q 19.4375 45.75 22.828125 46.625 
Q 26.21875 47.515625 30.421875 47.515625 
Q 42.234375 47.515625 49.0625 40.96875 
Q 55.90625 34.421875 55.90625 23.09375 
Q 55.90625 11.53125 49 5.046875 
Q 42.09375 -1.421875 29.59375 -1.421875 
Q 24.5625 -1.421875 19.28125 -0.1875 
Q 14.015625 1.03125 8.5 3.515625 
L 8.5 17.671875 
L 14.015625 17.671875 
Q 14.453125 10.75 18.421875 7.078125 
Q 22.40625 3.421875 29.59375 3.421875 
Q 37.3125 3.421875 41.453125 8.5 
Q 45.609375 13.578125 45.609375 23.09375 
Q 45.609375 32.5625 41.484375 37.609375 
Q 37.359375 42.671875 29.59375 42.671875 
Q 25.203125 42.671875 21.84375 41.109375 
Q 18.5 39.546875 15.921875 36.28125 
L 11.71875 36.28125 
L 11.71875 72.90625 
z
" id="DejaVuSerif-53"/>
       </defs>
       <use xlink:href="#DejaVuSerif-48"/>
       <use x="63.623047" xlink:href="#DejaVuSerif-46"/>
       <use x="95.410156" xlink:href="#DejaVuSerif-53"/>
      </g>
     </g>
    </g>
    <g id="xtick_5">
     <g id="line2d_5">
      <g>
       <use style="stroke:#000000;stroke-width:0.8;" x="236.463351" xlink:href="#m75686b95cf" y="252"/>
      </g>
     </g>
     <g id="text_5">
      <!-- 0.6 -->
      <g transform="translate(228.511788 266.598437)scale(0.1 -0.1)">
       <defs>
        <path d="M 32.71875 3.421875 
Q 39.59375 3.421875 43.296875 8.46875 
Q 47.015625 13.53125 47.015625 23 
Q 47.015625 32.46875 43.296875 37.515625 
Q 39.59375 42.578125 32.71875 42.578125 
Q 25.734375 42.578125 22.0625 37.6875 
Q 18.40625 32.8125 18.40625 23.578125 
Q 18.40625 13.875 22.109375 8.640625 
Q 25.828125 3.421875 32.71875 3.421875 
z
M 16.796875 40.140625 
Q 20.125 43.796875 24.3125 45.59375 
Q 28.515625 47.40625 33.796875 47.40625 
Q 44.671875 47.40625 51 40.859375 
Q 57.328125 34.328125 57.328125 23 
Q 57.328125 11.921875 50.515625 5.25 
Q 43.703125 -1.421875 32.328125 -1.421875 
Q 19.96875 -1.421875 13.328125 7.78125 
Q 6.6875 17 6.6875 34.078125 
Q 6.6875 53.21875 14.546875 63.71875 
Q 22.40625 74.21875 36.71875 74.21875 
Q 40.578125 74.21875 44.828125 73.484375 
Q 49.078125 72.75 53.515625 71.296875 
L 53.515625 59.28125 
L 48 59.28125 
Q 47.40625 64.203125 44.234375 66.796875 
Q 41.0625 69.390625 35.6875 69.390625 
Q 26.21875 69.390625 21.578125 62.203125 
Q 16.9375 55.03125 16.796875 40.140625 
z
" id="DejaVuSerif-54"/>
       </defs>
       <use xlink:href="#DejaVuSerif-48"/>
       <use x="63.623047" xlink:href="#DejaVuSerif-46"/>
       <use x="95.410156" xlink:href="#DejaVuSerif-54"/>
      </g>
     </g>
    </g>
    <g id="xtick_6">
     <g id="line2d_6">
      <g>
       <use style="stroke:#000000;stroke-width:0.8;" x="276.781382" xlink:href="#m75686b95cf" y="252"/>
      </g>
     </g>
     <g id="text_6">
      <!-- 0.7 -->
      <g transform="translate(268.82982 266.598437)scale(0.1 -0.1)">
       <defs>
        <path d="M 56.390625 67.921875 
L 27.875 0 
L 20.609375 0 
L 47.796875 64.890625 
L 14.109375 64.890625 
L 14.109375 55.90625 
L 8.40625 55.90625 
L 8.40625 72.90625 
L 56.390625 72.90625 
z
" id="DejaVuSerif-55"/>
       </defs>
       <use xlink:href="#DejaVuSerif-48"/>
       <use x="63.623047" xlink:href="#DejaVuSerif-46"/>
       <use x="95.410156" xlink:href="#DejaVuSerif-55"/>
      </g>
     </g>
    </g>
    <g id="xtick_7">
     <g id="line2d_7">
      <g>
       <use style="stroke:#000000;stroke-width:0.8;" x="317.099414" xlink:href="#m75686b95cf" y="252"/>
      </g>
     </g>
     <g id="text_7">
      <!-- 0.8 -->
      <g transform="translate(309.147852 266.598437)scale(0.1 -0.1)">
       <defs>
        <path d="M 46.578125 19.921875 
Q 46.578125 27.734375 42.6875 32.046875 
Q 38.8125 36.375 31.78125 36.375 
Q 24.75 36.375 20.875 32.046875 
Q 17 27.734375 17 19.921875 
Q 17 12.0625 20.875 7.734375 
Q 24.75 3.421875 31.78125 3.421875 
Q 38.8125 3.421875 42.6875 7.734375 
Q 46.578125 12.0625 46.578125 19.921875 
z
M 44.578125 55.328125 
Q 44.578125 61.96875 41.203125 65.671875 
Q 37.84375 69.390625 31.78125 69.390625 
Q 25.78125 69.390625 22.390625 65.671875 
Q 19 61.96875 19 55.328125 
Q 19 48.640625 22.390625 44.921875 
Q 25.78125 41.21875 31.78125 41.21875 
Q 37.84375 41.21875 41.203125 44.921875 
Q 44.578125 48.640625 44.578125 55.328125 
z
M 39.3125 38.8125 
Q 47.609375 37.703125 52.25 32.6875 
Q 56.890625 27.6875 56.890625 19.921875 
Q 56.890625 9.671875 50.390625 4.125 
Q 43.890625 -1.421875 31.78125 -1.421875 
Q 19.734375 -1.421875 13.203125 4.125 
Q 6.6875 9.671875 6.6875 19.921875 
Q 6.6875 27.6875 11.328125 32.6875 
Q 15.96875 37.703125 24.3125 38.8125 
Q 16.9375 40.140625 13 44.40625 
Q 9.078125 48.6875 9.078125 55.328125 
Q 9.078125 64.109375 15.125 69.15625 
Q 21.1875 74.21875 31.78125 74.21875 
Q 42.390625 74.21875 48.4375 69.15625 
Q 54.5 64.109375 54.5 55.328125 
Q 54.5 48.6875 50.5625 44.40625 
Q 46.625 40.140625 39.3125 38.8125 
z
" id="DejaVuSerif-56"/>
       </defs>
       <use xlink:href="#DejaVuSerif-48"/>
       <use x="63.623047" xlink:href="#DejaVuSerif-46"/>
       <use x="95.410156" xlink:href="#DejaVuSerif-56"/>
      </g>
     </g>
    </g>
    <g id="xtick_8">
     <g id="line2d_8">
      <g>
       <use style="stroke:#000000;stroke-width:0.8;" x="357.417446" xlink:href="#m75686b95cf" y="252"/>
      </g>
     </g>
     <g id="text_8">
      <!-- 0.9 -->
      <g transform="translate(349.465883 266.598437)scale(0.1 -0.1)">
       <defs>
        <path d="M 46.78125 32.671875 
Q 43.5 29 39.25 27.1875 
Q 35.015625 25.390625 29.6875 25.390625 
Q 18.84375 25.390625 12.5625 31.9375 
Q 6.296875 38.484375 6.296875 49.8125 
Q 6.296875 60.890625 13.109375 67.546875 
Q 19.921875 74.21875 31.296875 74.21875 
Q 43.65625 74.21875 50.265625 65.015625 
Q 56.890625 55.8125 56.890625 38.71875 
Q 56.890625 19.578125 49.015625 9.078125 
Q 41.15625 -1.421875 26.90625 -1.421875 
Q 23.046875 -1.421875 18.796875 -0.6875 
Q 14.546875 0.046875 10.109375 1.515625 
L 10.109375 13.625 
L 15.578125 13.625 
Q 16.21875 8.6875 19.390625 6.046875 
Q 22.5625 3.421875 27.875 3.421875 
Q 37.359375 3.421875 41.984375 10.5625 
Q 46.625 17.71875 46.78125 32.671875 
z
M 30.90625 69.390625 
Q 23.96875 69.390625 20.28125 64.328125 
Q 16.609375 59.28125 16.609375 49.8125 
Q 16.609375 40.328125 20.28125 35.25 
Q 23.96875 30.171875 30.90625 30.171875 
Q 37.84375 30.171875 41.53125 35.078125 
Q 45.21875 39.984375 45.21875 49.21875 
Q 45.21875 58.9375 41.5 64.15625 
Q 37.796875 69.390625 30.90625 69.390625 
z
" id="DejaVuSerif-57"/>
       </defs>
       <use xlink:href="#DejaVuSerif-48"/>
       <use x="63.623047" xlink:href="#DejaVuSerif-46"/>
       <use x="95.410156" xlink:href="#DejaVuSerif-57"/>
      </g>
     </g>
    </g>
    <g id="text_9">
     <!-- Deduplication rate -->
     <g transform="translate(174.0625 280.276563)scale(0.1 -0.1)">
      <defs>
       <path d="M 24.703125 5.171875 
L 33.796875 5.171875 
Q 48 5.171875 55.59375 13.28125 
Q 63.1875 21.390625 63.1875 36.53125 
Q 63.1875 51.65625 55.609375 59.65625 
Q 48.046875 67.671875 33.796875 67.671875 
L 24.703125 67.671875 
z
M 5.515625 0 
L 5.515625 5.171875 
L 14.796875 5.171875 
L 14.796875 67.671875 
L 5.515625 67.671875 
L 5.515625 72.90625 
L 34.515625 72.90625 
Q 53.375 72.90625 63.890625 63.28125 
Q 74.421875 53.65625 74.421875 36.53125 
Q 74.421875 19.34375 63.875 9.671875 
Q 53.328125 0 34.515625 0 
z
" id="DejaVuSerif-68"/>
       <path d="M 54.203125 25 
L 15.484375 25 
L 15.484375 24.609375 
Q 15.484375 14.109375 19.4375 8.765625 
Q 23.390625 3.421875 31.109375 3.421875 
Q 37.015625 3.421875 40.796875 6.515625 
Q 44.578125 9.625 46.09375 15.71875 
L 53.328125 15.71875 
Q 51.171875 7.171875 45.375 2.875 
Q 39.59375 -1.421875 30.171875 -1.421875 
Q 18.796875 -1.421875 11.890625 6.078125 
Q 4.984375 13.578125 4.984375 25.984375 
Q 4.984375 38.28125 11.765625 45.796875 
Q 18.5625 53.328125 29.59375 53.328125 
Q 41.359375 53.328125 47.65625 46.0625 
Q 53.953125 38.8125 54.203125 25 
z
M 43.609375 30.171875 
Q 43.3125 39.265625 39.765625 43.875 
Q 36.234375 48.484375 29.59375 48.484375 
Q 23.390625 48.484375 19.828125 43.84375 
Q 16.265625 39.203125 15.484375 30.171875 
z
" id="DejaVuSerif-101"/>
       <path d="M 52.484375 5.171875 
L 61.078125 5.171875 
L 61.078125 0 
L 43.5 0 
L 43.5 8.109375 
Q 40.875 3.21875 36.796875 0.890625 
Q 32.71875 -1.421875 26.703125 -1.421875 
Q 17.140625 -1.421875 11.0625 6.171875 
Q 4.984375 13.765625 4.984375 25.984375 
Q 4.984375 38.1875 11.03125 45.75 
Q 17.09375 53.328125 26.703125 53.328125 
Q 32.71875 53.328125 36.796875 51 
Q 40.875 48.6875 43.5 43.796875 
L 43.5 70.796875 
L 35.015625 70.796875 
L 35.015625 75.984375 
L 52.484375 75.984375 
z
M 43.5 23.390625 
L 43.5 28.515625 
Q 43.5 37.84375 39.90625 42.765625 
Q 36.328125 47.703125 29.5 47.703125 
Q 22.5625 47.703125 19.015625 42.234375 
Q 15.484375 36.765625 15.484375 25.984375 
Q 15.484375 15.234375 19.015625 9.71875 
Q 22.5625 4.203125 29.5 4.203125 
Q 36.328125 4.203125 39.90625 9.109375 
Q 43.5 14.015625 43.5 23.390625 
z
" id="DejaVuSerif-100"/>
       <path d="M 35.40625 51.90625 
L 52.203125 51.90625 
L 52.203125 5.171875 
L 60.6875 5.171875 
L 60.6875 0 
L 43.21875 0 
L 43.21875 9.1875 
Q 40.71875 4 36.765625 1.28125 
Q 32.8125 -1.421875 27.59375 -1.421875 
Q 18.953125 -1.421875 14.875 3.484375 
Q 10.796875 8.40625 10.796875 18.890625 
L 10.796875 46.6875 
L 2.6875 46.6875 
L 2.6875 51.90625 
L 19.828125 51.90625 
L 19.828125 21.6875 
Q 19.828125 12.203125 22.140625 8.6875 
Q 24.46875 5.171875 30.421875 5.171875 
Q 36.671875 5.171875 39.9375 9.765625 
Q 43.21875 14.359375 43.21875 23.09375 
L 43.21875 46.6875 
L 35.40625 46.6875 
z
" id="DejaVuSerif-117"/>
       <path d="M 20.515625 28.515625 
L 20.515625 23.390625 
Q 20.515625 14.015625 24.09375 9.109375 
Q 27.6875 4.203125 34.515625 4.203125 
Q 41.40625 4.203125 44.9375 9.71875 
Q 48.484375 15.234375 48.484375 25.984375 
Q 48.484375 36.765625 44.9375 42.234375 
Q 41.40625 47.703125 34.515625 47.703125 
Q 27.6875 47.703125 24.09375 42.765625 
Q 20.515625 37.84375 20.515625 28.515625 
z
M 11.53125 46.6875 
L 2.875 46.6875 
L 2.875 51.90625 
L 20.515625 51.90625 
L 20.515625 43.796875 
Q 23.140625 48.6875 27.21875 51 
Q 31.296875 53.328125 37.3125 53.328125 
Q 46.875 53.328125 52.921875 45.75 
Q 58.984375 38.1875 58.984375 25.984375 
Q 58.984375 13.765625 52.921875 6.171875 
Q 46.875 -1.421875 37.3125 -1.421875 
Q 31.296875 -1.421875 27.21875 0.890625 
Q 23.140625 3.21875 20.515625 8.109375 
L 20.515625 -15.578125 
L 29 -15.578125 
L 29 -20.796875 
L 2.875 -20.796875 
L 2.875 -15.578125 
L 11.53125 -15.578125 
z
" id="DejaVuSerif-112"/>
       <path d="M 20.515625 5.171875 
L 29 5.171875 
L 29 0 
L 2.875 0 
L 2.875 5.171875 
L 11.53125 5.171875 
L 11.53125 70.796875 
L 2.875 70.796875 
L 2.875 75.984375 
L 20.515625 75.984375 
z
" id="DejaVuSerif-108"/>
       <path d="M 9.71875 68.015625 
Q 9.71875 70.265625 11.34375 71.921875 
Q 12.984375 73.578125 15.28125 73.578125 
Q 17.53125 73.578125 19.15625 71.921875 
Q 20.796875 70.265625 20.796875 68.015625 
Q 20.796875 65.71875 19.1875 64.109375 
Q 17.578125 62.5 15.28125 62.5 
Q 12.984375 62.5 11.34375 64.109375 
Q 9.71875 65.71875 9.71875 68.015625 
z
M 21.1875 5.171875 
L 29.6875 5.171875 
L 29.6875 0 
L 3.609375 0 
L 3.609375 5.171875 
L 12.203125 5.171875 
L 12.203125 46.6875 
L 3.609375 46.6875 
L 3.609375 51.90625 
L 21.1875 51.90625 
z
" id="DejaVuSerif-105"/>
       <path d="M 51.421875 15.578125 
Q 49.515625 7.28125 44.09375 2.921875 
Q 38.671875 -1.421875 30.078125 -1.421875 
Q 18.75 -1.421875 11.859375 6.078125 
Q 4.984375 13.578125 4.984375 25.984375 
Q 4.984375 38.421875 11.859375 45.875 
Q 18.75 53.328125 30.078125 53.328125 
Q 35.015625 53.328125 39.890625 52.171875 
Q 44.78125 51.03125 49.703125 48.6875 
L 49.703125 35.40625 
L 44.484375 35.40625 
Q 43.453125 42.234375 40.015625 45.359375 
Q 36.578125 48.484375 30.171875 48.484375 
Q 22.90625 48.484375 19.1875 42.84375 
Q 15.484375 37.203125 15.484375 25.984375 
Q 15.484375 14.75 19.171875 9.078125 
Q 22.859375 3.421875 30.171875 3.421875 
Q 35.984375 3.421875 39.453125 6.4375 
Q 42.921875 9.46875 44.1875 15.578125 
z
" id="DejaVuSerif-99"/>
       <path d="M 39.796875 16.3125 
L 39.796875 27.296875 
L 28.21875 27.296875 
Q 21.53125 27.296875 18.25 24.40625 
Q 14.984375 21.53125 14.984375 15.578125 
Q 14.984375 10.15625 18.296875 6.984375 
Q 21.625 3.8125 27.296875 3.8125 
Q 32.90625 3.8125 36.34375 7.28125 
Q 39.796875 10.75 39.796875 16.3125 
z
M 48.78125 32.421875 
L 48.78125 5.171875 
L 56.78125 5.171875 
L 56.78125 0 
L 39.796875 0 
L 39.796875 5.609375 
Q 36.8125 2 32.90625 0.28125 
Q 29 -1.421875 23.78125 -1.421875 
Q 15.140625 -1.421875 10.0625 3.171875 
Q 4.984375 7.765625 4.984375 15.578125 
Q 4.984375 23.640625 10.796875 28.078125 
Q 16.609375 32.515625 27.203125 32.515625 
L 39.796875 32.515625 
L 39.796875 36.078125 
Q 39.796875 42 36.203125 45.234375 
Q 32.625 48.484375 26.125 48.484375 
Q 20.75 48.484375 17.578125 46.046875 
Q 14.40625 43.609375 13.625 38.8125 
L 8.984375 38.8125 
L 8.984375 49.3125 
Q 13.671875 51.3125 18.09375 52.3125 
Q 22.515625 53.328125 26.703125 53.328125 
Q 37.5 53.328125 43.140625 47.96875 
Q 48.78125 42.625 48.78125 32.421875 
z
" id="DejaVuSerif-97"/>
       <path d="M 10.796875 46.6875 
L 2.875 46.6875 
L 2.875 51.90625 
L 10.796875 51.90625 
L 10.796875 68.015625 
L 19.828125 68.015625 
L 19.828125 51.90625 
L 36.71875 51.90625 
L 36.71875 46.6875 
L 19.828125 46.6875 
L 19.828125 13.71875 
Q 19.828125 7.125 21.09375 5.265625 
Q 22.359375 3.421875 25.78125 3.421875 
Q 29.296875 3.421875 30.90625 5.484375 
Q 32.515625 7.5625 32.625 12.203125 
L 39.40625 12.203125 
Q 39.015625 5.125 35.546875 1.84375 
Q 32.078125 -1.421875 25 -1.421875 
Q 17.234375 -1.421875 14.015625 2.015625 
Q 10.796875 5.46875 10.796875 13.71875 
z
" id="DejaVuSerif-116"/>
       <path d="M 30.078125 3.421875 
Q 37.3125 3.421875 40.984375 9.125 
Q 44.671875 14.84375 44.671875 25.984375 
Q 44.671875 37.109375 40.984375 42.796875 
Q 37.3125 48.484375 30.078125 48.484375 
Q 22.859375 48.484375 19.171875 42.796875 
Q 15.484375 37.109375 15.484375 25.984375 
Q 15.484375 14.84375 19.1875 9.125 
Q 22.90625 3.421875 30.078125 3.421875 
z
M 30.078125 -1.421875 
Q 18.75 -1.421875 11.859375 6.078125 
Q 4.984375 13.578125 4.984375 25.984375 
Q 4.984375 38.375 11.84375 45.84375 
Q 18.703125 53.328125 30.078125 53.328125 
Q 41.453125 53.328125 48.3125 45.84375 
Q 55.171875 38.375 55.171875 25.984375 
Q 55.171875 13.578125 48.3125 6.078125 
Q 41.453125 -1.421875 30.078125 -1.421875 
z
" id="DejaVuSerif-111"/>
       <path d="M 4.109375 0 
L 4.109375 5.171875 
L 12.203125 5.171875 
L 12.203125 46.6875 
L 3.609375 46.6875 
L 3.609375 51.90625 
L 21.1875 51.90625 
L 21.1875 42.671875 
Q 23.6875 47.953125 27.65625 50.640625 
Q 31.640625 53.328125 36.921875 53.328125 
Q 45.515625 53.328125 49.5625 48.390625 
Q 53.609375 43.453125 53.609375 33.015625 
L 53.609375 5.171875 
L 61.625 5.171875 
L 61.625 0 
L 36.8125 0 
L 36.8125 5.171875 
L 44.578125 5.171875 
L 44.578125 30.171875 
Q 44.578125 39.703125 42.234375 43.234375 
Q 39.890625 46.78125 33.984375 46.78125 
Q 27.734375 46.78125 24.453125 42.203125 
Q 21.1875 37.640625 21.1875 28.90625 
L 21.1875 5.171875 
L 29 5.171875 
L 29 0 
z
" id="DejaVuSerif-110"/>
       <path id="DejaVuSerif-32"/>
       <path d="M 47.796875 52 
L 47.796875 39.015625 
L 42.625 39.015625 
Q 42.390625 42.875 40.484375 44.78125 
Q 38.578125 46.6875 34.90625 46.6875 
Q 28.265625 46.6875 24.71875 42.09375 
Q 21.1875 37.5 21.1875 28.90625 
L 21.1875 5.171875 
L 31.59375 5.171875 
L 31.59375 0 
L 4.109375 0 
L 4.109375 5.171875 
L 12.203125 5.171875 
L 12.203125 46.78125 
L 3.609375 46.78125 
L 3.609375 51.90625 
L 21.1875 51.90625 
L 21.1875 42.671875 
Q 23.828125 48.09375 27.96875 50.703125 
Q 32.125 53.328125 38.09375 53.328125 
Q 40.28125 53.328125 42.703125 52.984375 
Q 45.125 52.640625 47.796875 52 
z
" id="DejaVuSerif-114"/>
      </defs>
      <use xlink:href="#DejaVuSerif-68"/>
      <use x="80.175781" xlink:href="#DejaVuSerif-101"/>
      <use x="139.355469" xlink:href="#DejaVuSerif-100"/>
      <use x="203.369141" xlink:href="#DejaVuSerif-117"/>
      <use x="267.773438" xlink:href="#DejaVuSerif-112"/>
      <use x="331.787109" xlink:href="#DejaVuSerif-108"/>
      <use x="363.769531" xlink:href="#DejaVuSerif-105"/>
      <use x="395.751953" xlink:href="#DejaVuSerif-99"/>
      <use x="451.757812" xlink:href="#DejaVuSerif-97"/>
      <use x="511.376953" xlink:href="#DejaVuSerif-116"/>
      <use x="551.5625" xlink:href="#DejaVuSerif-105"/>
      <use x="583.544922" xlink:href="#DejaVuSerif-111"/>
      <use x="643.75" xlink:href="#DejaVuSerif-110"/>
      <use x="708.154297" xlink:href="#DejaVuSerif-32"/>
      <use x="739.941406" xlink:href="#DejaVuSerif-114"/>
      <use x="787.744141" xlink:href="#DejaVuSerif-97"/>
      <use x="847.363281" xlink:href="#DejaVuSerif-116"/>
      <use x="887.548828" xlink:href="#DejaVuSerif-101"/>
     </g>
    </g>
   </g>
   <g id="matplotlib.axis_2">
    <g id="ytick_1">
     <g id="line2d_9">
      <defs>
       <path d="M 0 0 
L -3.5 0 
" id="m435f9d3ff0" style="stroke:#000000;stroke-width:0.8;"/>
      </defs>
      <g>
       <use style="stroke:#000000;stroke-width:0.8;" x="54" xlink:href="#m435f9d3ff0" y="252"/>
      </g>
     </g>
     <g id="text_10">
      <!-- 0 -->
      <g transform="translate(40.6375 255.799219)scale(0.1 -0.1)">
       <use xlink:href="#DejaVuSerif-48"/>
      </g>
     </g>
    </g>
    <g id="ytick_2">
     <g id="line2d_10">
      <g>
       <use style="stroke:#000000;stroke-width:0.8;" x="54" xlink:href="#m435f9d3ff0" y="213.364606"/>
      </g>
     </g>
     <g id="text_11">
      <!-- 50 -->
      <g transform="translate(34.275 217.163824)scale(0.1 -0.1)">
       <use xlink:href="#DejaVuSerif-53"/>
       <use x="63.623047" xlink:href="#DejaVuSerif-48"/>
      </g>
     </g>
    </g>
    <g id="ytick_3">
     <g id="line2d_11">
      <g>
       <use style="stroke:#000000;stroke-width:0.8;" x="54" xlink:href="#m435f9d3ff0" y="174.729211"/>
      </g>
     </g>
     <g id="text_12">
      <!-- 100 -->
      <g transform="translate(27.9125 178.52843)scale(0.1 -0.1)">
       <defs>
        <path d="M 14.203125 0 
L 14.203125 5.171875 
L 26.90625 5.171875 
L 26.90625 65.828125 
L 12.203125 56.296875 
L 12.203125 62.703125 
L 29.984375 74.21875 
L 36.71875 74.21875 
L 36.71875 5.171875 
L 49.421875 5.171875 
L 49.421875 0 
z
" id="DejaVuSerif-49"/>
       </defs>
       <use xlink:href="#DejaVuSerif-49"/>
       <use x="63.623047" xlink:href="#DejaVuSerif-48"/>
       <use x="127.246094" xlink:href="#DejaVuSerif-48"/>
      </g>
     </g>
    </g>
    <g id="ytick_4">
     <g id="line2d_12">
      <g>
       <use style="stroke:#000000;stroke-width:0.8;" x="54" xlink:href="#m435f9d3ff0" y="136.093817"/>
      </g>
     </g>
     <g id="text_13">
      <!-- 150 -->
      <g transform="translate(27.9125 139.893035)scale(0.1 -0.1)">
       <use xlink:href="#DejaVuSerif-49"/>
       <use x="63.623047" xlink:href="#DejaVuSerif-53"/>
       <use x="127.246094" xlink:href="#DejaVuSerif-48"/>
      </g>
     </g>
    </g>
    <g id="ytick_5">
     <g id="line2d_13">
      <g>
       <use style="stroke:#000000;stroke-width:0.8;" x="54" xlink:href="#m435f9d3ff0" y="97.458422"/>
      </g>
     </g>
     <g id="text_14">
      <!-- 200 -->
      <g transform="translate(27.9125 101.257641)scale(0.1 -0.1)">
       <use xlink:href="#DejaVuSerif-50"/>
       <use x="63.623047" xlink:href="#DejaVuSerif-48"/>
       <use x="127.246094" xlink:href="#DejaVuSerif-48"/>
      </g>
     </g>
    </g>
    <g id="ytick_6">
     <g id="line2d_14">
      <g>
       <use style="stroke:#000000;stroke-width:0.8;" x="54" xlink:href="#m435f9d3ff0" y="58.823028"/>
      </g>
     </g>
     <g id="text_15">
      <!-- 250 -->
      <g transform="translate(27.9125 62.622246)scale(0.1 -0.1)">
       <use xlink:href="#DejaVuSerif-50"/>
       <use x="63.623047" xlink:href="#DejaVuSerif-53"/>
       <use x="127.246094" xlink:href="#DejaVuSerif-48"/>
      </g>
     </g>
    </g>
    <g id="text_16">
     <!-- # cells -->
     <g transform="translate(21.832812 160.582344)rotate(-90)scale(0.1 -0.1)">
      <defs>
       <path d="M 50.875 44 
L 37.109375 44 
L 33.015625 27.6875 
L 46.921875 27.6875 
z
M 44 71.78125 
L 39.015625 51.515625 
L 52.78125 51.515625 
L 57.8125 71.78125 
L 66.21875 71.78125 
L 61.078125 51.515625 
L 76.125 51.515625 
L 76.125 44 
L 59.1875 44 
L 55.171875 27.6875 
L 70.515625 27.6875 
L 70.515625 20.21875 
L 53.328125 20.21875 
L 48.296875 0 
L 39.890625 0 
L 45.015625 20.21875 
L 31.203125 20.21875 
L 26.125 0 
L 17.828125 0 
L 22.796875 20.21875 
L 7.71875 20.21875 
L 7.71875 27.6875 
L 24.703125 27.6875 
L 28.71875 44 
L 13.28125 44 
L 13.28125 51.515625 
L 30.609375 51.515625 
L 35.6875 71.78125 
z
" id="DejaVuSerif-35"/>
       <path d="M 5.609375 2.875 
L 5.609375 14.984375 
L 10.796875 14.984375 
Q 10.984375 9.1875 14.421875 6.296875 
Q 17.875 3.421875 24.609375 3.421875 
Q 30.671875 3.421875 33.84375 5.6875 
Q 37.015625 7.953125 37.015625 12.3125 
Q 37.015625 15.71875 34.6875 17.8125 
Q 32.375 19.921875 24.90625 22.3125 
L 18.40625 24.515625 
Q 11.71875 26.65625 8.71875 29.875 
Q 5.71875 33.109375 5.71875 38.09375 
Q 5.71875 45.21875 10.9375 49.265625 
Q 16.15625 53.328125 25.390625 53.328125 
Q 29.5 53.328125 34.03125 52.25 
Q 38.578125 51.171875 43.40625 49.125 
L 43.40625 37.796875 
L 38.234375 37.796875 
Q 38.03125 42.828125 34.703125 45.65625 
Q 31.390625 48.484375 25.6875 48.484375 
Q 20.015625 48.484375 17.109375 46.484375 
Q 14.203125 44.484375 14.203125 40.484375 
Q 14.203125 37.203125 16.40625 35.21875 
Q 18.609375 33.25 25.203125 31.203125 
L 32.328125 29 
Q 39.703125 26.703125 42.9375 23.265625 
Q 46.1875 19.828125 46.1875 14.40625 
Q 46.1875 7.03125 40.546875 2.796875 
Q 34.90625 -1.421875 25 -1.421875 
Q 19.96875 -1.421875 15.1875 -0.34375 
Q 10.40625 0.734375 5.609375 2.875 
z
" id="DejaVuSerif-115"/>
      </defs>
      <use xlink:href="#DejaVuSerif-35"/>
      <use x="83.789062" xlink:href="#DejaVuSerif-32"/>
      <use x="115.576172" xlink:href="#DejaVuSerif-99"/>
      <use x="171.582031" xlink:href="#DejaVuSerif-101"/>
      <use x="230.761719" xlink:href="#DejaVuSerif-108"/>
      <use x="262.744141" xlink:href="#DejaVuSerif-108"/>
      <use x="294.726562" xlink:href="#DejaVuSerif-115"/>
     </g>
    </g>
   </g>
   <g id="patch_133">
    <path d="M 54 252 
L 54 34.56 
" style="fill:none;stroke:#000000;stroke-linecap:square;stroke-linejoin:miter;stroke-width:0.8;"/>
   </g>
   <g id="patch_134">
    <path d="M 388.8 252 
L 388.8 34.56 
" style="fill:none;stroke:#000000;stroke-linecap:square;stroke-linejoin:miter;stroke-width:0.8;"/>
   </g>
   <g id="patch_135">
    <path d="M 54 252 
L 388.8 252 
" style="fill:none;stroke:#000000;stroke-linecap:square;stroke-linejoin:miter;stroke-width:0.8;"/>
   </g>
   <g id="patch_136">
    <path d="M 54 34.56 
L 388.8 34.56 
" style="fill:none;stroke:#000000;stroke-linecap:square;stroke-linejoin:miter;stroke-width:0.8;"/>
   </g>
   <g id="text_17">
    <!-- Public dataset (Zhang et al., 2019)  -->
    <g transform="translate(114.029063 14.952)scale(0.12 -0.12)">
     <defs>
      <path d="M 24.703125 37.109375 
L 37.59375 37.109375 
Q 44.875 37.109375 48.671875 41.03125 
Q 52.484375 44.96875 52.484375 52.390625 
Q 52.484375 59.859375 48.671875 63.765625 
Q 44.875 67.671875 37.59375 67.671875 
L 24.703125 67.671875 
z
M 5.515625 0 
L 5.515625 5.171875 
L 14.796875 5.171875 
L 14.796875 67.671875 
L 5.515625 67.671875 
L 5.515625 72.90625 
L 39.984375 72.90625 
Q 50.921875 72.90625 57.3125 67.359375 
Q 63.71875 61.8125 63.71875 52.390625 
Q 63.71875 43.015625 57.3125 37.453125 
Q 50.921875 31.890625 39.984375 31.890625 
L 24.703125 31.890625 
L 24.703125 5.171875 
L 35.984375 5.171875 
L 35.984375 0 
z
" id="DejaVuSerif-80"/>
      <path d="M 11.53125 5.171875 
L 11.53125 70.796875 
L 2.875 70.796875 
L 2.875 75.984375 
L 20.515625 75.984375 
L 20.515625 43.796875 
Q 23.140625 48.6875 27.21875 51 
Q 31.296875 53.328125 37.3125 53.328125 
Q 46.875 53.328125 52.921875 45.75 
Q 58.984375 38.1875 58.984375 25.984375 
Q 58.984375 13.765625 52.921875 6.171875 
Q 46.875 -1.421875 37.3125 -1.421875 
Q 31.296875 -1.421875 27.21875 0.890625 
Q 23.140625 3.21875 20.515625 8.109375 
L 20.515625 0 
L 2.875 0 
L 2.875 5.171875 
z
M 20.515625 23.390625 
Q 20.515625 14.015625 24.09375 9.109375 
Q 27.6875 4.203125 34.515625 4.203125 
Q 41.40625 4.203125 44.9375 9.71875 
Q 48.484375 15.234375 48.484375 25.984375 
Q 48.484375 36.765625 44.9375 42.234375 
Q 41.40625 47.703125 34.515625 47.703125 
Q 27.6875 47.703125 24.09375 42.765625 
Q 20.515625 37.84375 20.515625 28.515625 
z
" id="DejaVuSerif-98"/>
      <path d="M 31.890625 -15.578125 
Q 20.015625 -10.25 13.953125 1.296875 
Q 7.90625 12.84375 7.90625 30.171875 
Q 7.90625 47.5625 13.953125 59.109375 
Q 20.015625 70.65625 31.890625 75.984375 
L 31.890625 71.1875 
Q 24.359375 66.015625 21.09375 56.609375 
Q 17.828125 47.21875 17.828125 30.171875 
Q 17.828125 13.1875 21.09375 3.78125 
Q 24.359375 -5.609375 31.890625 -10.796875 
z
" id="DejaVuSerif-40"/>
      <path d="M 4.5 0 
L 4.5 3.515625 
L 49.90625 66.890625 
L 12.203125 66.890625 
L 12.203125 56 
L 6.203125 56 
L 6.203125 72.90625 
L 63.8125 72.90625 
L 63.8125 69.390625 
L 18.40625 6 
L 59.625 6 
L 59.625 16.21875 
L 65.578125 16.21875 
L 65.578125 0 
z
" id="DejaVuSerif-90"/>
      <path d="M 4.109375 0 
L 4.109375 5.171875 
L 12.203125 5.171875 
L 12.203125 70.796875 
L 3.609375 70.796875 
L 3.609375 75.984375 
L 21.1875 75.984375 
L 21.1875 42.671875 
Q 23.6875 47.953125 27.65625 50.640625 
Q 31.640625 53.328125 36.921875 53.328125 
Q 45.515625 53.328125 49.5625 48.390625 
Q 53.609375 43.453125 53.609375 33.015625 
L 53.609375 5.171875 
L 61.625 5.171875 
L 61.625 0 
L 36.8125 0 
L 36.8125 5.171875 
L 44.578125 5.171875 
L 44.578125 30.171875 
Q 44.578125 39.703125 42.25 43.1875 
Q 39.9375 46.6875 33.984375 46.6875 
Q 27.734375 46.6875 24.453125 42.140625 
Q 21.1875 37.59375 21.1875 28.90625 
L 21.1875 5.171875 
L 29 5.171875 
L 29 0 
z
" id="DejaVuSerif-104"/>
      <path d="M 52.484375 46.6875 
L 52.484375 1.125 
Q 52.484375 -10.0625 46.328125 -16.140625 
Q 40.1875 -22.21875 28.8125 -22.21875 
Q 23.6875 -22.21875 19 -21.28125 
Q 14.3125 -20.359375 10.015625 -18.5 
L 10.015625 -7.625 
L 14.703125 -7.625 
Q 15.578125 -12.703125 18.84375 -15.046875 
Q 22.125 -17.390625 28.21875 -17.390625 
Q 36.140625 -17.390625 39.8125 -12.921875 
Q 43.5 -8.453125 43.5 1.125 
L 43.5 8.109375 
Q 40.875 3.21875 36.796875 0.890625 
Q 32.71875 -1.421875 26.703125 -1.421875 
Q 17.140625 -1.421875 11.0625 6.171875 
Q 4.984375 13.765625 4.984375 25.984375 
Q 4.984375 38.1875 11.03125 45.75 
Q 17.09375 53.328125 26.703125 53.328125 
Q 32.71875 53.328125 36.796875 51 
Q 40.875 48.6875 43.5 43.796875 
L 43.5 51.90625 
L 61.078125 51.90625 
L 61.078125 46.6875 
z
M 43.5 28.515625 
Q 43.5 37.84375 39.90625 42.765625 
Q 36.328125 47.703125 29.5 47.703125 
Q 22.5625 47.703125 19.015625 42.234375 
Q 15.484375 36.765625 15.484375 25.984375 
Q 15.484375 15.234375 19.015625 9.71875 
Q 22.5625 4.203125 29.5 4.203125 
Q 36.328125 4.203125 39.90625 9.109375 
Q 43.5 14.015625 43.5 23.390625 
z
" id="DejaVuSerif-103"/>
      <path d="M 3.609375 -9.71875 
Q 8.203125 -6.34375 10.34375 -1.78125 
Q 12.5 2.78125 12.5 9.28125 
L 12.5 11.078125 
L 22.125 11.078125 
Q 21.734375 2.734375 18.1875 -3.25 
Q 14.65625 -9.234375 7.515625 -13.625 
z
" id="DejaVuSerif-44"/>
      <path d="M 7.078125 -15.578125 
L 7.078125 -10.796875 
Q 14.59375 -5.609375 17.890625 3.78125 
Q 21.1875 13.1875 21.1875 30.171875 
Q 21.1875 47.21875 17.890625 56.609375 
Q 14.59375 66.015625 7.078125 71.1875 
L 7.078125 75.984375 
Q 19 70.65625 25.046875 59.109375 
Q 31.109375 47.5625 31.109375 30.171875 
Q 31.109375 12.84375 25.046875 1.296875 
Q 19 -10.25 7.078125 -15.578125 
z
" id="DejaVuSerif-41"/>
     </defs>
     <use xlink:href="#DejaVuSerif-80"/>
     <use x="67.285156" xlink:href="#DejaVuSerif-117"/>
     <use x="131.689453" xlink:href="#DejaVuSerif-98"/>
     <use x="195.703125" xlink:href="#DejaVuSerif-108"/>
     <use x="227.685547" xlink:href="#DejaVuSerif-105"/>
     <use x="259.667969" xlink:href="#DejaVuSerif-99"/>
     <use x="315.673828" xlink:href="#DejaVuSerif-32"/>
     <use x="347.460938" xlink:href="#DejaVuSerif-100"/>
     <use x="411.474609" xlink:href="#DejaVuSerif-97"/>
     <use x="471.09375" xlink:href="#DejaVuSerif-116"/>
     <use x="511.279297" xlink:href="#DejaVuSerif-97"/>
     <use x="570.898438" xlink:href="#DejaVuSerif-115"/>
     <use x="622.216797" xlink:href="#DejaVuSerif-101"/>
     <use x="681.396484" xlink:href="#DejaVuSerif-116"/>
     <use x="721.582031" xlink:href="#DejaVuSerif-32"/>
     <use x="753.369141" xlink:href="#DejaVuSerif-40"/>
     <use x="792.382812" xlink:href="#DejaVuSerif-90"/>
     <use x="861.865234" xlink:href="#DejaVuSerif-104"/>
     <use x="926.269531" xlink:href="#DejaVuSerif-97"/>
     <use x="985.888672" xlink:href="#DejaVuSerif-110"/>
     <use x="1050.292969" xlink:href="#DejaVuSerif-103"/>
     <use x="1114.306641" xlink:href="#DejaVuSerif-32"/>
     <use x="1146.09375" xlink:href="#DejaVuSerif-101"/>
     <use x="1205.273438" xlink:href="#DejaVuSerif-116"/>
     <use x="1245.458984" xlink:href="#DejaVuSerif-32"/>
     <use x="1277.246094" xlink:href="#DejaVuSerif-97"/>
     <use x="1336.865234" xlink:href="#DejaVuSerif-108"/>
     <use x="1368.847656" xlink:href="#DejaVuSerif-46"/>
     <use x="1400.634766" xlink:href="#DejaVuSerif-44"/>
     <use x="1432.421875" xlink:href="#DejaVuSerif-32"/>
     <use x="1464.208984" xlink:href="#DejaVuSerif-50"/>
     <use x="1527.832031" xlink:href="#DejaVuSerif-48"/>
     <use x="1591.455078" xlink:href="#DejaVuSerif-49"/>
     <use x="1655.078125" xlink:href="#DejaVuSerif-57"/>
     <use x="1718.701172" xlink:href="#DejaVuSerif-41"/>
     <use x="1757.714844" xlink:href="#DejaVuSerif-32"/>
    </g>
    <!--  Geo data -->
    <g transform="translate(192.222188 28.56)scale(0.12 -0.12)">
     <defs>
      <path d="M 64.015625 51.125 
Q 62.3125 60.25 56.890625 64.625 
Q 51.46875 69 41.796875 69 
Q 29.203125 69 23 60.890625 
Q 16.796875 52.78125 16.796875 36.375 
Q 16.796875 20.3125 23.1875 12.0625 
Q 29.59375 3.8125 42 3.8125 
Q 47.515625 3.8125 52.53125 5.171875 
Q 57.5625 6.546875 62.109375 9.28125 
L 62.109375 28.078125 
L 48.390625 28.078125 
L 48.390625 33.296875 
L 72.015625 33.296875 
L 72.015625 6.109375 
Q 65.53125 2.34375 58.03125 0.453125 
Q 50.53125 -1.421875 42 -1.421875 
Q 25.484375 -1.421875 15.546875 8.90625 
Q 5.609375 19.234375 5.609375 36.375 
Q 5.609375 53.65625 15.5625 63.9375 
Q 25.53125 74.21875 42.390625 74.21875 
Q 48.640625 74.21875 55.296875 72.78125 
Q 61.96875 71.34375 69.484375 68.40625 
L 69.484375 51.125 
z
" id="DejaVuSerif-71"/>
     </defs>
     <use xlink:href="#DejaVuSerif-32"/>
     <use x="31.787109" xlink:href="#DejaVuSerif-71"/>
     <use x="111.669922" xlink:href="#DejaVuSerif-101"/>
     <use x="170.849609" xlink:href="#DejaVuSerif-111"/>
     <use x="231.054688" xlink:href="#DejaVuSerif-32"/>
     <use x="262.841797" xlink:href="#DejaVuSerif-100"/>
     <use x="326.855469" xlink:href="#DejaVuSerif-97"/>
     <use x="386.474609" xlink:href="#DejaVuSerif-116"/>
     <use x="426.660156" xlink:href="#DejaVuSerif-97"/>
    </g>
   </g>
  </g>
 </g>
 <defs>
  <clipPath id="p3c88f008df">
   <rect height="217.44" width="334.8" x="54" y="34.56"/>
  </clipPath>
 </defs>
</svg>
